<svg width="152" height="96" viewBox="0 0 152 96" fill="none" xmlns="http://www.w3.org/2000/svg">
<path d="M0.308 94.864C0.102667 94.248 0 93.6833 0 93.17C0 92.862 0.102667 92.2973 0.308 91.476C0.410667 91.168 0.718667 90.2953 1.232 88.858C1.64267 87.5233 2.05333 86.1373 2.464 84.7C2.97733 83.2627 3.33667 82.4413 3.542 82.236C3.64467 82.236 4.004 81.466 4.62 79.926C5.33867 78.2833 6.10867 76.5893 6.93 74.844C7.75133 72.996 8.36733 71.8153 8.778 71.302C9.29133 70.2753 10.0613 68.8893 11.088 67.144C12.1147 65.3987 13.1413 63.3967 14.168 61.138V60.522C14.168 59.8033 14.322 59.136 14.63 58.52C14.938 57.6987 15.2973 57.1853 15.708 56.98C16.1187 56.672 16.478 56.056 16.786 55.132C16.9913 54.6187 17.1453 54.054 17.248 53.438C17.4533 52.7193 17.6587 52.1033 17.864 51.59C16.7347 52.0007 16.17 52.36 16.17 52.668C16.17 53.0787 15.6053 53.4893 14.476 53.9C13.3467 54.3107 12.6793 54.5673 12.474 54.67L7.084 56.364C6.776 56.4667 6.468 56.2613 6.16 55.748C5.95467 55.132 5.852 54.4647 5.852 53.746C5.852 52.7193 6.05733 51.898 6.468 51.282C6.468 51.1793 6.57067 51.128 6.776 51.128L10.01 50.204C10.7287 49.9987 11.6527 49.8447 12.782 49.742C13.9113 49.5367 14.8867 49.2287 15.708 48.818L20.174 48.202V47.432C20.174 46.816 20.3793 46.2513 20.79 45.738C21.3033 45.122 21.7653 44.4547 22.176 43.736C22.3813 43.3253 22.6893 43.12 23.1 43.12H23.562C23.7673 43.12 23.87 42.8633 23.87 42.35C23.87 42.1447 23.87 41.9393 23.87 41.734C23.87 41.426 23.8187 41.0667 23.716 40.656C23.716 39.8347 24.0753 39.3727 24.794 39.27H25.256C25.564 37.9353 25.8207 36.96 26.026 36.344C26.334 35.728 26.6933 35.2147 27.104 34.804L28.336 33.572C29.6707 32.2373 30.5947 30.8513 31.108 29.414C31.3133 29.0033 31.57 28.644 31.878 28.336C32.2887 28.028 32.648 27.6687 32.956 27.258C33.1613 27.0527 33.2127 26.7447 33.11 26.334C33.11 25.9233 33.1613 25.6153 33.264 25.41C34.0853 24.178 35.0607 22.946 36.19 21.714C37.3193 20.3793 38.3973 19.1987 39.424 18.172C39.732 17.6587 40.0913 17.1453 40.502 16.632C40.9127 16.1187 41.3233 15.6053 41.734 15.092C42.35 14.3733 43.0173 13.86 43.736 13.552C44.4547 13.244 45.1733 12.782 45.892 12.166C46.0973 11.9607 46.2 11.6527 46.2 11.242C46.2 10.7287 46.3027 10.3693 46.508 10.164C48.8693 8.21333 51.3847 6.51933 54.054 5.082C56.7233 3.542 59.29 2.31 61.754 1.386C64.218 0.462 66.22 0 67.76 0C68.5813 0 69.3513 0.0513327 70.07 0.153998C70.7887 0.256663 71.5587 0.410664 72.38 0.616001H72.688C73.2013 0.616001 73.6633 0.718667 74.074 0.923997C74.5873 1.12933 75.0493 1.33467 75.46 1.54C75.9733 1.54 76.538 1.64266 77.154 1.84799C77.6673 2.05333 77.924 2.36133 77.924 2.772C78.0267 3.18267 77.9753 3.49067 77.77 3.696C77.6673 3.79866 77.462 3.79866 77.154 3.696C76.9487 3.59333 76.7433 3.542 76.538 3.542C76.3327 3.542 76.1273 3.43933 75.922 3.23399C75.7167 3.02866 75.5113 2.87467 75.306 2.772C74.998 2.772 74.6387 2.82333 74.228 2.926C73.8173 3.02866 73.4067 3.08 72.996 3.08C71.8667 3.08 71.148 2.97733 70.84 2.772C70.6347 2.464 70.07 2.41267 69.146 2.618C68.9407 2.618 68.5813 2.66934 68.068 2.772C67.5547 2.87467 67.1953 2.926 66.99 2.926C63.294 3.85 60.06 5.39 57.288 7.546C54.6187 9.59934 52.206 11.9093 50.05 14.476C47.894 17.0427 45.8407 19.5067 43.89 21.868C43.4793 22.792 43.0173 23.6647 42.504 24.486C42.0933 25.2047 41.6313 25.8207 41.118 26.334C41.0153 26.4367 40.9127 26.3853 40.81 26.18C40.81 25.9747 40.7073 25.9747 40.502 26.18C40.2967 26.488 40.0913 27.0013 39.886 27.72C39.6807 28.336 39.4753 28.8493 39.27 29.26C39.1673 29.3627 39.0133 29.3113 38.808 29.106C38.7053 28.9007 38.5513 28.9007 38.346 29.106C38.2433 29.2087 38.1407 29.6193 38.038 30.338C37.9353 30.954 37.7813 31.3647 37.576 31.57C36.2413 33.2127 34.8553 34.804 33.418 36.344C31.9807 37.884 30.5433 39.6807 29.106 41.734L25.564 47.124C25.9747 47.124 26.334 47.124 26.642 47.124C27.0527 47.124 27.412 47.0727 27.72 46.97C28.028 46.8673 28.1307 46.9187 28.028 47.124C28.028 47.2267 28.182 47.2267 28.49 47.124C29.0033 47.124 29.3627 47.0727 29.568 46.97C29.7733 46.7647 30.1327 46.6107 30.646 46.508C31.4673 46.4053 32.3913 46.354 33.418 46.354C34.5473 46.2513 35.42 46.2 36.036 46.2C36.4467 46.2 36.96 46.2 37.576 46.2C38.192 46.2 38.654 46.2513 38.962 46.354C39.1673 46.354 39.2187 46.4567 39.116 46.662C39.116 46.7647 39.1673 46.816 39.27 46.816C39.4753 46.816 39.6293 46.7647 39.732 46.662C39.9373 46.5593 40.1427 46.508 40.348 46.508C40.4507 46.4053 40.6047 46.4053 40.81 46.508C41.0153 46.508 41.1693 46.508 41.272 46.508L42.966 46.97C43.4793 47.0727 43.7873 47.3807 43.89 47.894C43.9927 48.4073 43.8387 48.664 43.428 48.664C43.12 48.664 42.8633 48.6127 42.658 48.51C42.4527 48.4073 42.2473 48.356 42.042 48.356H38.192C37.4733 48.356 36.806 48.356 36.19 48.356C35.574 48.356 34.958 48.4073 34.342 48.51C34.1367 48.6127 34.034 48.51 34.034 48.202C34.1367 47.894 34.0853 47.74 33.88 47.74C33.7773 47.74 33.6233 47.894 33.418 48.202C33.2127 48.4073 33.0587 48.51 32.956 48.51L32.186 48.972C30.7487 49.28 29.2087 49.6393 27.566 50.05C26.026 50.358 24.486 50.7687 22.946 51.282L14.476 65.296C13.7573 66.528 13.1927 67.6573 12.782 68.684C12.474 69.608 12.1147 70.4807 11.704 71.302C11.4987 71.61 11.396 72.0207 11.396 72.534C11.396 73.3553 11.858 73.766 12.782 73.766C13.09 73.766 13.6547 73.5607 14.476 73.15C14.8867 72.9447 15.246 72.7907 15.554 72.688C15.9647 72.5853 16.3753 72.4313 16.786 72.226C16.8887 72.226 17.5047 71.8667 18.634 71.148C19.7633 70.4293 20.944 69.5567 22.176 68.53L23.408 67.452L25.256 66.066C25.564 65.758 25.8207 65.604 26.026 65.604C26.4367 65.604 26.7447 65.8093 26.95 66.22C27.1553 66.6307 27.104 67.0413 26.796 67.452C26.5907 67.76 26.2313 68.0167 25.718 68.222C25.2047 68.4273 24.6913 68.7867 24.178 69.3C23.254 70.0187 22.2273 70.7887 21.098 71.61C20.0713 72.3287 19.0447 72.996 18.018 73.612C17.6073 73.92 17.1453 74.228 16.632 74.536C16.2213 74.844 15.8107 75.2033 15.4 75.614L14.014 77.77C13.9113 77.9753 13.7573 78.078 13.552 78.078C13.4493 77.9753 13.1413 78.1293 12.628 78.54C12.5253 78.6427 12.474 78.848 12.474 79.156C12.474 79.3613 12.3713 79.5667 12.166 79.772C12.0633 80.08 11.9093 80.3367 11.704 80.542C11.4987 80.6447 11.396 80.7987 11.396 81.004C11.2933 81.312 11.088 81.5173 10.78 81.62C10.5747 81.62 10.3693 81.7227 10.164 81.928C10.0613 82.0307 10.01 82.1847 10.01 82.39C10.1127 82.5953 10.1127 82.8007 10.01 83.006L8.316 86.24C8.11067 86.856 7.80267 87.2153 7.392 87.318C7.28933 87.4207 7.13533 87.3693 6.93 87.164C6.72467 87.0613 6.57067 87.1127 6.468 87.318C6.468 87.5233 6.51933 87.8313 6.622 88.242C6.82733 88.6527 6.776 88.9607 6.468 89.166C6.16 89.3713 5.852 89.782 5.544 90.398C5.236 91.1167 4.97933 91.63 4.774 91.938C4.466 92.3487 4.10667 92.6053 3.696 92.708C3.388 92.8107 3.08 93.0673 2.772 93.478C2.66933 93.5807 2.31 93.9913 1.694 94.71C1.078 95.5313 0.616 95.5827 0.308 94.864Z" fill="#C81C1C"/>
<path d="M39.9089 85.008C38.8822 85.008 37.8042 84.8027 36.6749 84.392C35.5455 83.8787 35.1349 83.314 35.4429 82.698C35.8535 81.8767 36.3155 81.0553 36.8289 80.234C37.4449 79.31 38.0095 78.3347 38.5229 77.308L40.2169 74.074C40.4222 73.5607 40.6275 73.2013 40.8329 72.996C41.1409 72.688 41.3975 72.3287 41.6029 71.918C41.7055 71.8153 41.7569 71.5587 41.7569 71.148C41.7569 70.6347 41.9622 70.07 42.3729 69.454C42.8862 68.7353 43.2455 68.068 43.4509 67.452C43.5535 67.3493 43.6562 67.6573 43.7589 68.376C43.8615 69.0947 44.1182 69.0433 44.5289 68.222C44.6315 68.1193 44.5802 67.9653 44.3749 67.76C44.2722 67.5547 44.2209 67.3493 44.2209 67.144C44.2209 66.9387 44.2722 66.836 44.3749 66.836C44.5802 66.7333 44.6829 66.6307 44.6829 66.528C44.7855 66.22 44.6829 66.1173 44.3749 66.22C44.1695 66.22 44.0669 66.1687 44.0669 66.066C44.2722 65.758 44.4775 65.5527 44.6829 65.45C44.9909 65.3473 45.1962 65.1933 45.2989 64.988C45.2989 64.7827 45.1962 64.68 44.9909 64.68C44.8882 64.5773 44.8882 64.4747 44.9909 64.372C45.5042 62.9347 46.0689 61.2407 46.6849 59.29C47.3009 57.3393 47.7629 55.5427 48.0709 53.9C48.0709 53.9 47.9682 53.8487 47.7629 53.746C47.5575 53.5407 47.4549 53.3353 47.4549 53.13L46.3769 52.36C45.1449 53.4893 43.8102 54.4647 42.3729 55.286C42.2702 55.3887 42.0649 55.44 41.7569 55.44C41.3462 55.44 41.0895 55.2347 40.9869 54.824C40.8842 54.4133 41.0382 54.054 41.4489 53.746C41.9622 53.438 42.3729 53.2327 42.6809 53.13C42.9889 52.9247 43.3482 52.6167 43.7589 52.206C43.9642 52.0007 44.0669 51.7953 44.0669 51.59C44.1695 51.3847 44.2722 51.1793 44.3749 50.974L44.9909 50.204C44.9909 49.6907 45.0935 49.28 45.2989 48.972C45.5042 48.7667 45.6582 48.664 45.7609 48.664C45.8635 48.664 45.9149 48.664 45.9149 48.664V48.356C45.9149 47.9453 46.0689 47.6887 46.3769 47.586C46.7875 47.4833 46.9929 47.3293 46.9929 47.124C47.1982 45.6867 48.4302 44.6087 50.6889 43.89C52.9475 43.1713 54.9495 42.812 56.6949 42.812C58.4402 42.812 59.3129 43.0687 59.3129 43.582C59.3129 43.89 59.0049 44.2493 58.3889 44.66C58.0809 44.8653 57.5675 45.3273 56.8489 46.046C56.1302 46.7647 55.4629 47.6373 54.8469 48.664L53.7689 50.512L52.6909 51.898C51.9722 53.5407 50.9455 56.056 49.6109 59.444C48.2762 62.832 46.8902 67.0927 45.4529 72.226C45.7609 71.8153 46.4795 70.9427 47.6089 69.608C48.7382 68.2733 50.0729 66.7333 51.6129 64.988C53.1529 63.2427 54.6415 61.6 56.0789 60.06C57.5162 58.4173 58.6969 57.134 59.6209 56.21L60.3909 55.748C60.5962 55.5427 60.8015 55.286 61.0069 54.978C61.3149 54.5673 61.5715 54.2593 61.7769 54.054C61.8795 53.9513 61.9309 54.1567 61.9309 54.67C62.0335 55.0807 62.1362 55.2347 62.2389 55.132C62.6495 54.824 62.8549 54.362 62.8549 53.746C62.9575 53.13 63.2142 52.7193 63.6249 52.514C64.7542 51.59 66.2942 50.3067 68.2449 48.664C70.2982 46.9187 72.4029 45.892 74.5589 45.584C74.7642 45.3787 75.0722 45.3273 75.4829 45.43C75.9962 45.43 76.3555 45.3787 76.5609 45.276C76.7662 45.276 76.9202 45.2247 77.0229 45.122C77.1255 45.0193 77.3822 44.968 77.7929 44.968C77.9982 44.968 78.4089 45.122 79.0249 45.43C79.7435 45.738 80.1542 46.1487 80.2569 46.662C80.8729 47.0727 81.1809 47.6887 81.1809 48.51C81.1809 49.9473 80.4109 51.0253 78.8709 51.744C78.3575 52.2573 77.7929 52.7707 77.1769 53.284C76.5609 53.6947 75.9449 54.1567 75.3289 54.67C75.1235 54.8753 74.9695 54.978 74.8669 54.978C74.1482 55.594 73.5322 56.2613 73.0189 56.98C72.5055 57.6987 72.2489 58.6227 72.2489 59.752C72.2489 59.8547 72.3515 60.0087 72.5569 60.214C72.7622 60.3167 72.8135 60.4193 72.7109 60.522C73.0189 60.83 73.4809 61.0353 74.0969 61.138C74.7129 61.138 75.3289 61.138 75.9449 61.138C76.9715 61.138 78.5115 60.7273 80.5649 59.906H80.8729C80.9755 59.906 81.0269 59.9573 81.0269 60.06C81.0269 60.2653 80.8215 60.6247 80.4109 61.138C80.0002 61.5487 79.5382 61.8567 79.0249 62.062C77.8955 62.4727 76.7149 62.7293 75.4829 62.832C74.2509 62.832 73.3782 62.832 72.8649 62.832C71.0169 62.832 69.8362 62.4727 69.3229 61.754C68.9122 61.0353 68.5015 60.1627 68.0909 59.136V58.366L68.8609 57.596C68.7582 57.288 68.6042 56.98 68.3989 56.672C68.1935 56.364 68.0909 56.0047 68.0909 55.594C68.0909 54.5673 68.5015 53.3867 69.3229 52.052C68.1935 52.36 66.7562 53.2327 65.0109 54.67C63.3682 56.0047 61.6742 57.596 59.9289 59.444C58.1835 61.1893 56.5922 62.9347 55.1549 64.68C53.7175 66.3227 52.5882 67.6573 51.7669 68.684C51.4589 69.0947 51.0995 69.3513 50.6889 69.454C50.3809 69.454 50.1242 69.608 49.9189 69.916C49.8162 70.0187 49.9189 70.07 50.2269 70.07C50.6375 70.07 50.7915 70.1213 50.6889 70.224C49.3542 72.2773 47.9169 74.536 46.3769 77C44.9395 79.464 43.5022 81.8767 42.0649 84.238C41.7569 84.7513 41.0382 85.008 39.9089 85.008Z" fill="#C81C1C"/>
<path d="M88.4032 85.624C85.8366 85.624 83.5779 84.9053 81.6272 83.468C79.6766 82.0307 78.7012 79.5667 78.7012 76.076C78.7012 74.7413 78.8552 73.4067 79.1632 72.072C79.4712 70.6347 79.8306 69.2487 80.2412 67.914C80.4466 66.5793 80.7546 65.3987 81.1652 64.372C81.2679 63.9613 81.3192 63.756 81.3192 63.756C81.4219 63.6533 81.6786 63.4993 82.0892 63.294L83.3212 61.446V60.83C83.2186 60.83 83.1672 60.83 83.1672 60.83C83.1672 60.7273 83.1672 60.676 83.1672 60.676C83.1672 60.368 83.4239 60.0087 83.9372 59.598C84.4506 59.1873 84.7072 58.982 84.7072 58.982C84.8099 58.4687 84.9639 58.212 85.1692 58.212C85.3746 58.212 85.6312 58.058 85.9392 57.75H87.6332V57.442C87.6332 56.9287 87.3766 56.7233 86.8632 56.826C86.4526 56.826 86.2472 56.7747 86.2472 56.672C86.2472 56.5693 86.4012 56.364 86.7092 56.056C87.1199 55.6453 87.3766 55.3887 87.4792 55.286C87.7872 54.8753 88.0439 54.516 88.2492 54.208C88.4546 53.7973 88.7626 53.4893 89.1732 53.284C91.0212 51.0253 92.1506 49.588 92.5612 48.972C93.0746 48.356 93.5879 47.894 94.1012 47.586C94.3066 47.586 94.4606 47.6887 94.5632 47.894C94.7686 47.9967 94.7686 48.1507 94.5632 48.356C94.7686 48.664 94.9226 48.7153 95.0252 48.51C95.2306 48.3047 95.3332 48.202 95.3332 48.202L95.9492 47.894C95.7439 47.6887 95.6412 47.432 95.6412 47.124C95.6412 46.6107 95.7439 46.2 95.9492 45.892C96.1546 45.4813 96.5139 45.0707 97.0272 44.66C97.6432 44.2493 97.9512 43.9927 97.9512 43.89C98.5672 43.6847 99.0292 43.4793 99.3372 43.274C99.7479 43.0687 100.159 42.966 100.569 42.966C101.288 42.966 102.007 43.2227 102.725 43.736C104.676 44.7627 106.319 45.7893 107.653 46.816C108.988 47.8427 109.655 49.28 109.655 51.128C109.655 53.0787 108.834 54.7727 107.191 56.21C105.651 57.5447 103.752 58.674 101.493 59.598C99.2346 60.522 96.9759 61.292 94.7172 61.908C92.5612 62.4213 90.8672 62.832 89.6352 63.14C88.9165 63.2427 88.5572 63.5507 88.5572 64.064C88.6599 64.4747 88.6086 64.9367 88.4032 65.45L87.3252 67.144L86.4012 69.3L85.6312 70.686C84.9126 71.302 84.6559 71.764 84.8612 72.072C85.0666 72.38 85.4259 72.3287 85.9392 71.918C86.0419 72.0207 86.0932 72.1747 86.0932 72.38C86.0932 72.7907 85.9906 73.304 85.7852 73.92C85.5799 74.4333 85.4259 74.844 85.3232 75.152C85.2206 75.5627 85.2206 75.768 85.3232 75.768C85.5286 75.6653 85.6312 75.8707 85.6312 76.384L85.7852 78.54C86.4012 80.4907 87.7872 81.62 89.9432 81.928C90.1486 81.928 90.3539 81.9793 90.5592 82.082C90.8672 82.082 91.1239 82.082 91.3292 82.082C93.1772 82.082 94.1526 81.928 94.2552 81.62C94.4606 81.312 94.7172 81.1067 95.0252 81.004C95.9492 80.7987 96.7192 80.5933 97.3352 80.388C98.0539 80.1827 98.7726 79.8747 99.4912 79.464C100.723 78.9507 101.904 78.2833 103.033 77.462C104.163 76.6407 105.343 75.8193 106.575 74.998L108.115 73.92C108.218 73.7147 108.218 73.5607 108.115 73.458C108.013 73.3553 108.013 73.2527 108.115 73.15C108.321 73.0473 108.475 73.0473 108.577 73.15C108.783 73.15 108.937 73.0987 109.039 72.996C109.245 72.8933 109.45 72.7393 109.655 72.534C109.861 72.226 110.066 71.9693 110.271 71.764C110.477 71.5587 110.579 71.3533 110.579 71.148C110.682 70.9427 110.836 70.7373 111.041 70.532C111.863 69.7107 112.684 68.838 113.505 67.914C114.429 66.99 115.199 66.1687 115.815 65.45C116.534 64.4233 117.099 63.91 117.509 63.91C117.715 63.91 117.817 64.0127 117.817 64.218C117.817 64.7313 117.458 65.5013 116.739 66.528C114.994 69.0947 112.992 71.61 110.733 74.074C108.475 76.4353 106.011 78.5913 103.341 80.542C101.391 81.8767 99.0805 83.0573 96.4112 84.084C93.7419 85.1107 91.0726 85.624 88.4032 85.624ZM90.7132 60.83C92.2532 60.7273 94.2552 60.3167 96.7192 59.598C99.1832 58.7767 101.237 57.6987 102.879 56.364C104.625 54.9267 105.497 53.3353 105.497 51.59C105.497 49.9473 104.625 48.356 102.879 46.816C101.442 47.8427 99.8506 49.3313 98.1052 51.282C96.4626 53.13 94.9739 54.978 93.6392 56.826C92.3046 58.5713 91.3292 59.906 90.7132 60.83Z" fill="#C81C1C"/>
<path d="M122.542 85.624C119.975 85.624 117.717 84.9053 115.766 83.468C113.815 82.0307 112.84 79.5667 112.84 76.076C112.84 74.7413 112.994 73.4067 113.302 72.072C113.61 70.6347 113.969 69.2487 114.38 67.914C114.585 66.5793 114.893 65.3987 115.304 64.372C115.407 63.9613 115.458 63.756 115.458 63.756C115.561 63.6533 115.817 63.4993 116.228 63.294L117.46 61.446V60.83C117.357 60.83 117.306 60.83 117.306 60.83C117.306 60.7273 117.306 60.676 117.306 60.676C117.306 60.368 117.563 60.0087 118.076 59.598C118.589 59.1873 118.846 58.982 118.846 58.982C118.949 58.4687 119.103 58.212 119.308 58.212C119.513 58.212 119.77 58.058 120.078 57.75H121.772V57.442C121.772 56.9287 121.515 56.7233 121.002 56.826C120.591 56.826 120.386 56.7747 120.386 56.672C120.386 56.5693 120.54 56.364 120.848 56.056C121.259 55.6453 121.515 55.3887 121.618 55.286C121.926 54.8753 122.183 54.516 122.388 54.208C122.593 53.7973 122.901 53.4893 123.312 53.284C125.16 51.0253 126.289 49.588 126.7 48.972C127.213 48.356 127.727 47.894 128.24 47.586C128.445 47.586 128.599 47.6887 128.702 47.894C128.907 47.9967 128.907 48.1507 128.702 48.356C128.907 48.664 129.061 48.7153 129.164 48.51C129.369 48.3047 129.472 48.202 129.472 48.202L130.088 47.894C129.883 47.6887 129.78 47.432 129.78 47.124C129.78 46.6107 129.883 46.2 130.088 45.892C130.293 45.4813 130.653 45.0707 131.166 44.66C131.782 44.2493 132.09 43.9927 132.09 43.89C132.706 43.6847 133.168 43.4793 133.476 43.274C133.887 43.0687 134.297 42.966 134.708 42.966C135.427 42.966 136.145 43.2227 136.864 43.736C138.815 44.7627 140.457 45.7893 141.792 46.816C143.127 47.8427 143.794 49.28 143.794 51.128C143.794 53.0787 142.973 54.7727 141.33 56.21C139.79 57.5447 137.891 58.674 135.632 59.598C133.373 60.522 131.115 61.292 128.856 61.908C126.7 62.4213 125.006 62.832 123.774 63.14C123.055 63.2427 122.696 63.5507 122.696 64.064C122.799 64.4747 122.747 64.9367 122.542 65.45L121.464 67.144L120.54 69.3L119.77 70.686C119.051 71.302 118.795 71.764 119 72.072C119.205 72.38 119.565 72.3287 120.078 71.918C120.181 72.0207 120.232 72.1747 120.232 72.38C120.232 72.7907 120.129 73.304 119.924 73.92C119.719 74.4333 119.565 74.844 119.462 75.152C119.359 75.5627 119.359 75.768 119.462 75.768C119.667 75.6653 119.77 75.8707 119.77 76.384L119.924 78.54C120.54 80.4907 121.926 81.62 124.082 81.928C124.287 81.928 124.493 81.9793 124.698 82.082C125.006 82.082 125.263 82.082 125.468 82.082C127.316 82.082 128.291 81.928 128.394 81.62C128.599 81.312 128.856 81.1067 129.164 81.004C130.088 80.7987 130.858 80.5933 131.474 80.388C132.193 80.1827 132.911 79.8747 133.63 79.464C134.862 78.9507 136.043 78.2833 137.172 77.462C138.301 76.6407 139.482 75.8193 140.714 74.998L142.254 73.92C142.357 73.7147 142.357 73.5607 142.254 73.458C142.151 73.3553 142.151 73.2527 142.254 73.15C142.459 73.0473 142.613 73.0473 142.716 73.15C142.921 73.15 143.075 73.0987 143.178 72.996C143.383 72.8933 143.589 72.7393 143.794 72.534C143.999 72.226 144.205 71.9693 144.41 71.764C144.615 71.5587 144.718 71.3533 144.718 71.148C144.821 70.9427 144.975 70.7373 145.18 70.532C146.001 69.7107 146.823 68.838 147.644 67.914C148.568 66.99 149.338 66.1687 149.954 65.45C150.673 64.4233 151.237 63.91 151.648 63.91C151.853 63.91 151.956 64.0127 151.956 64.218C151.956 64.7313 151.597 65.5013 150.878 66.528C149.133 69.0947 147.131 71.61 144.872 74.074C142.613 76.4353 140.149 78.5913 137.48 80.542C135.529 81.8767 133.219 83.0573 130.55 84.084C127.881 85.1107 125.211 85.624 122.542 85.624ZM124.852 60.83C126.392 60.7273 128.394 60.3167 130.858 59.598C133.322 58.7767 135.375 57.6987 137.018 56.364C138.763 54.9267 139.636 53.3353 139.636 51.59C139.636 49.9473 138.763 48.356 137.018 46.816C135.581 47.8427 133.989 49.3313 132.244 51.282C130.601 53.13 129.113 54.978 127.778 56.826C126.443 58.5713 125.468 59.906 124.852 60.83Z" fill="#C81C1C"/>
</svg>
