<svg width="81" height="81" viewBox="0 0 81 81" fill="none" xmlns="http://www.w3.org/2000/svg">
<path d="M0 0H81V81H0V0Z" fill="#FF6B08"/>
<path d="M8.96851 73.2585C7.78429 73.2585 6.74216 72.9887 5.84215 72.449C4.94214 71.9093 4.23949 71.1769 3.73422 70.2517C3.24474 69.3111 3 68.2549 3 67.083C3 65.8957 3.25264 64.8472 3.75791 63.9374C4.26318 63.0277 4.95793 62.3107 5.84215 61.7864C6.74216 61.2621 7.78429 61 8.96851 61C10.1685 61 11.2107 61.2621 12.0949 61.7864C12.9949 62.3107 13.6896 63.0277 14.1791 63.9374C14.6844 64.8472 14.937 65.8957 14.937 67.083C14.937 68.2549 14.6844 69.3111 14.1791 70.2517C13.6896 71.1769 12.9949 71.9093 12.0949 72.449C11.2107 72.9887 10.1685 73.2585 8.96851 73.2585ZM8.96851 71.6857C9.78958 71.6857 10.5001 71.493 11.1001 71.1075C11.7001 70.7066 12.1659 70.1592 12.4975 69.4653C12.8291 68.7714 12.9949 67.9696 12.9949 67.0599C12.9949 65.703 12.6238 64.6159 11.8817 63.7986C11.1554 62.9814 10.1843 62.5728 8.96851 62.5728C7.7685 62.5728 6.79743 62.9814 6.05531 63.7986C5.31319 64.6159 4.94214 65.703 4.94214 67.0599C4.94214 67.9696 5.10793 68.7714 5.43951 69.4653C5.7711 70.1592 6.23689 70.7066 6.8369 71.1075C7.4527 71.493 8.16324 71.6857 8.96851 71.6857Z" fill="white"/>
<path d="M17.7788 73.0272V61.2313H19.5552V64.2381H19.6736V73.0272H17.7788ZM19.6736 66.8748L19.3657 64.0762C19.6499 63.0739 20.1552 62.3107 20.8815 61.7864C21.6078 61.2621 22.4447 61 23.3921 61C23.7868 61 24.0552 61.0308 24.1973 61.0925V62.8735C24.1184 62.8426 24.0079 62.8272 23.8657 62.8272C23.7236 62.8118 23.55 62.8041 23.3447 62.8041C22.1447 62.8041 21.2289 63.1587 20.5973 63.868C19.9815 64.5619 19.6736 65.5642 19.6736 66.8748Z" fill="white"/>
<path d="M33.7269 73.0272C33.6637 72.7651 33.6163 72.4644 33.5848 72.1252C33.569 71.7859 33.5611 71.3542 33.5611 70.8299H33.4426V65.1864C33.4426 64.2921 33.2295 63.6367 32.8032 63.2204C32.3926 62.7887 31.7216 62.5728 30.79 62.5728C29.8742 62.5728 29.1399 62.7578 28.5873 63.1279C28.0505 63.4825 27.7504 63.9914 27.6873 64.6544H25.8636C25.9425 63.5134 26.432 62.619 27.332 61.9714C28.232 61.3238 29.4084 61 30.861 61C32.361 61 33.4742 61.3469 34.2006 62.0408C34.9269 62.7347 35.29 63.7755 35.29 65.1633V70.8299C35.29 71.1692 35.3137 71.5238 35.3611 71.8939C35.4085 72.2485 35.4716 72.6263 35.5506 73.0272H33.7269ZM29.5821 73.2585C28.3347 73.2585 27.3399 72.9655 26.5978 72.3796C25.8715 71.7782 25.5083 70.961 25.5083 69.9279C25.5083 68.8948 25.8715 68.093 26.5978 67.5224C27.3241 66.9519 28.382 66.551 29.7715 66.3197L33.9874 65.6258V67.1524L30.0557 67.7537C29.1715 67.8925 28.5005 68.1238 28.0426 68.4476C27.5847 68.7714 27.3557 69.2417 27.3557 69.8585C27.3557 70.4599 27.561 70.9147 27.9715 71.2231C28.3978 71.5315 29.0215 71.6857 29.8426 71.6857C30.9005 71.6857 31.761 71.4544 32.4242 70.9918C33.1032 70.5138 33.4426 69.8971 33.4426 69.1415L33.7505 70.7837C33.4979 71.5701 33.0005 72.1791 32.2584 72.6109C31.5321 73.0426 30.64 73.2585 29.5821 73.2585Z" fill="white"/>
<path d="M38.9423 73.0272V61.2313H40.7186V64.0068H40.837V73.0272H38.9423ZM47.5871 73.0272V65.302C47.5871 64.4077 47.3582 63.737 46.9003 63.2898C46.4424 62.8426 45.7634 62.619 44.8634 62.619C44.0739 62.619 43.3713 62.7887 42.7555 63.1279C42.1555 63.4671 41.6818 63.9374 41.3344 64.5388C41.0028 65.1401 40.837 65.8417 40.837 66.6435L40.5291 63.8449C40.9397 62.966 41.5634 62.2721 42.4002 61.7633C43.2529 61.2544 44.216 61 45.2897 61C46.5529 61 47.5635 61.3546 48.3214 62.0639C49.0951 62.7578 49.4819 63.6753 49.4819 64.8163V73.0272H47.5871Z" fill="white"/>
<path d="M57.9286 78C56.4917 78 55.2917 77.6685 54.3286 77.0054C53.3812 76.3578 52.8048 75.4943 52.5996 74.415H54.3996C54.5733 75.0317 54.9601 75.5175 55.5602 75.8721C56.176 76.2422 57.0049 76.4272 58.047 76.4272C59.2786 76.4272 60.2102 76.0957 60.8418 75.4327C61.4734 74.785 61.7892 73.829 61.7892 72.5646V70.0435L62.026 70.0898C61.7576 70.9841 61.2208 71.7011 60.4155 72.2408C59.6102 72.7651 58.6549 73.0272 57.5497 73.0272C56.4917 73.0272 55.5602 72.7805 54.7549 72.2871C53.9496 71.7782 53.3259 71.0766 52.8838 70.1823C52.4417 69.288 52.2206 68.2472 52.2206 67.0599C52.2206 65.8571 52.4496 64.8009 52.9075 63.8912C53.3654 62.9814 54.0049 62.2798 54.8259 61.7864C55.6628 61.2776 56.6339 61.0231 57.7391 61.0231C58.876 61.0231 59.8234 61.293 60.5813 61.8327C61.355 62.3723 61.8681 63.1433 62.1208 64.1456L61.9076 64.1687V61.2313H63.684V72.5646C63.684 74.2454 63.1708 75.5714 62.1445 76.5429C61.1181 77.5143 59.7129 78 57.9286 78ZM58.0233 71.4313C59.2076 71.4313 60.1471 71.0304 60.8418 70.2286C61.5366 69.4268 61.8839 68.3397 61.8839 66.9673C61.8839 65.6258 61.5366 64.5696 60.8418 63.7986C60.1471 63.0122 59.2076 62.619 58.0233 62.619C56.8233 62.619 55.8759 63.0122 55.1812 63.7986C54.5022 64.585 54.1628 65.6644 54.1628 67.0367C54.1628 68.3782 54.5101 69.4499 55.2049 70.2517C55.8996 71.0381 56.8391 71.4313 58.0233 71.4313Z" fill="white"/>
<path d="M72.4341 73.2585C71.2815 73.2585 70.263 72.9964 69.3788 72.4721C68.4946 71.9324 67.7998 71.2 67.2946 70.2748C66.7893 69.3497 66.5367 68.2857 66.5367 67.083C66.5367 65.8803 66.7814 64.824 67.2709 63.9143C67.7762 62.9891 68.4788 62.2721 69.3788 61.7633C70.2788 61.2544 71.3131 61 72.4815 61C73.6026 61 74.5736 61.239 75.3947 61.717C76.2315 62.195 76.871 62.8658 77.3131 63.7293C77.7711 64.5927 78 65.6104 78 66.7823C78 66.9365 77.9921 67.083 77.9763 67.2218C77.9763 67.3605 77.9605 67.5147 77.9289 67.6844H67.9577V66.1347H76.7684L76.1526 66.9905C76.1526 65.5719 75.8289 64.4848 75.1815 63.7293C74.5499 62.9583 73.6499 62.5728 72.4815 62.5728C71.2815 62.5728 70.3104 62.9814 69.5683 63.7986C68.842 64.6005 68.4788 65.6875 68.4788 67.0599C68.4788 68.463 68.842 69.5887 69.5683 70.4367C70.3104 71.2694 71.2973 71.6857 72.5289 71.6857C73.3026 71.6857 73.9815 71.5238 74.5657 71.2C75.15 70.8608 75.5763 70.3828 75.8447 69.766H77.6447C77.25 70.8453 76.5868 71.7011 75.6552 72.3333C74.7394 72.9501 73.6657 73.2585 72.4341 73.2585Z" fill="white"/>
</svg>
