<svg width="81" height="81" viewBox="0 0 81 81" fill="none" xmlns="http://www.w3.org/2000/svg">
<path d="M0 0H81V81H0V0Z" fill="#C70707"/>
<path d="M33.1439 33.6648C33.0082 32.5188 32.4578 31.6292 31.4927 30.9959C30.5277 30.3626 29.344 30.0459 27.9417 30.0459C26.9164 30.0459 26.0192 30.2118 25.2502 30.5435C24.4887 30.8752 23.8931 31.3314 23.4634 31.9119C23.0412 32.4924 22.83 33.1521 22.83 33.891C22.83 34.5092 22.9771 35.0407 23.2711 35.4855C23.5727 35.9228 23.9572 36.2885 24.4246 36.5825C24.8921 36.869 25.3821 37.1065 25.8948 37.295C26.4075 37.4759 26.8787 37.6229 27.3084 37.736L29.6607 38.3693C30.2638 38.5277 30.9348 38.7463 31.6737 39.0253C32.4201 39.3042 33.1326 39.6849 33.8111 40.1675C34.4972 40.6424 35.0626 41.2531 35.5074 41.9995C35.9523 42.7459 36.1747 43.6619 36.1747 44.7476C36.1747 45.9991 35.8467 47.13 35.1908 48.1403C34.5424 49.1506 33.5925 49.9535 32.3409 50.5491C31.0969 51.1447 29.5853 51.4425 27.806 51.4425C26.1474 51.4425 24.7111 51.1749 23.4973 50.6396C22.291 50.1043 21.341 49.3579 20.6474 48.4004C19.9613 47.4429 19.5731 46.3309 19.4826 45.0643H22.3777C22.4531 45.9388 22.7471 46.6626 23.2598 47.2356C23.78 47.801 24.4359 48.2232 25.2276 48.5022C26.0267 48.7736 26.8862 48.9093 27.806 48.9093C28.8766 48.9093 29.8379 48.7359 30.6898 48.3891C31.5418 48.0348 32.2165 47.5447 32.7141 46.9189C33.2117 46.2856 33.4605 45.5468 33.4605 44.7024C33.4605 43.9334 33.2456 43.3076 32.8159 42.8251C32.3862 42.3426 31.8207 41.9505 31.1195 41.6489C30.4184 41.3474 29.6607 41.0835 28.8464 40.8573L25.9966 40.0431C24.1871 39.5229 22.7547 38.7802 21.6991 37.8152C20.6436 36.8502 20.1159 35.5873 20.1159 34.0267C20.1159 32.7299 20.4665 31.599 21.1676 30.634C21.8763 29.6614 22.8263 28.9075 24.0175 28.3722C25.2162 27.8293 26.5545 27.5579 28.0322 27.5579C29.525 27.5579 30.8519 27.8256 32.013 28.3609C33.174 28.8886 34.0938 29.6124 34.7724 30.5322C35.4584 31.452 35.8203 32.4962 35.858 33.6648H33.1439Z" fill="white"/>
<path d="M40.7859 51.0354V27.8746H54.6734V30.3626H43.5906V38.1884H53.6329V40.6764H43.5906V51.0354H40.7859Z" fill="white"/>
<path d="M59.4769 51.0354V27.8746H67.3027C69.1121 27.8746 70.5974 28.1837 71.7585 28.8019C72.9195 29.4126 73.779 30.2532 74.3369 31.3238C74.8948 32.3944 75.1738 33.612 75.1738 34.9766C75.1738 36.3413 74.8948 37.5513 74.3369 38.6068C73.779 39.6623 72.9233 40.4917 71.7698 41.0948C70.6162 41.6904 69.1423 41.9882 67.3479 41.9882H61.0149V39.455H67.2575C68.4939 39.455 69.4891 39.2741 70.243 38.9122C71.0045 38.5503 71.5549 38.0376 71.8942 37.3741C72.241 36.7031 72.4144 35.904 72.4144 34.9766C72.4144 34.0493 72.241 33.2388 71.8942 32.5452C71.5474 31.8516 70.9932 31.3163 70.2317 30.9393C69.4703 30.5548 68.4638 30.3626 67.2122 30.3626H62.2815V51.0354H59.4769ZM70.3788 40.6311L76.0785 51.0354H72.8215L67.2122 40.6311H70.3788Z" fill="white"/>
</svg>
